<svg id="Icons" height="512" viewBox="0 0 512 512" width="512" xmlns="http://www.w3.org/2000/svg"><path d="m512 256c0 141.38-114.62 256-256 256-128.46 0-234.84-94.64-253.19-218a257.45 257.45 0 0 1 -2.81-38c0-141.38 114.62-256 256-256 136.45 0 248 106.76 255.58 241.3.28 4.86.42 9.77.42 14.7z" fill="#29a3fb"/><path d="m512 256c0 141.38-114.62 256-256 256-128.46 0-234.84-94.64-253.19-218 1.51-.54 3-1.15 4.49-1.81 9.93-4.45 18.6-11.41 28.69-15.47a55.81 55.81 0 0 1 42.66.63c12.94 5.65 24.19 16.43 38.35 17.25 11.66.68 22.71-5.84 30.87-14.19s14.13-18.54 21.13-27.81c9.77-12.78 22.07-24.11 37-30s32.87-5.77 46.41 2.92c12.62 8.11 19.87 22.15 29.59 33.56 13.82 16.23 35.65 27.79 56.36 22.66 16.74-4.15 31.1-18.54 48.27-16.89s28.53 18.62 43.83 26.83c20.13 10.8 48 3.63 60.43-15.53 7.22-11.18 11.41-26.86 20.61-34.83.36 4.84.5 9.75.5 14.68z" fill="#0989d8"/><path d="m329.3 150.14 27.27-7.3a22.39 22.39 0 0 1 28.07 19.32l6.44 61.84a22.4 22.4 0 0 1 -16.49 23.95l-29.87 8" fill="none" stroke="#f9f2f9" stroke-linecap="round" stroke-miterlimit="10" stroke-width="7"/><path d="m83.36 216-27.26 7.35a22.4 22.4 0 0 0 -14.66 30.76l25.34 56.75a22.4 22.4 0 0 0 26.22 12.51l29.87-8" fill="none" stroke="#f9f2f9" stroke-linecap="round" stroke-miterlimit="10" stroke-width="7"/><path d="m321.13 152.33 15.21 96.47a34.49 34.49 0 0 1 -17.66 35.77l-30.24 16.43a209.56 209.56 0 0 1 -94.27 25.26l-34.39.92a34.57 34.57 0 0 1 -33.19-22.18l-35-91.15a34.83 34.83 0 0 1 23.53-46.23l162.56-43.56a34.9 34.9 0 0 1 43.45 28.27z" fill="#decee5"/><path d="m321.13 152.33 15.21 96.47a34.72 34.72 0 0 1 .21 9.32 34.11 34.11 0 0 1 -4.11 2.62l-30.24 16.4a209.69 209.69 0 0 1 -94.27 25.26l-34.39.92a34.58 34.58 0 0 1 -33.19-22.14l-35.06-91.18a34.55 34.55 0 0 1 -2.09-16.66 34.84 34.84 0 0 1 11.87-5.74l162.56-43.56a34.9 34.9 0 0 1 43.5 28.29z" fill="#f4e6f4"/><ellipse cx="207.94" cy="156.15" fill="#f9f2f9" rx="33.74" ry="10.63" transform="matrix(.966 -.259 .259 .966 -33.33 59.14)"/><ellipse cx="269.49" cy="139.66" fill="#f9f2f9" rx="24.24" ry="7.64" transform="matrix(.966 -.259 .259 .966 -26.96 74.51)"/><path d="m265.45 179.17 10.92-8.42c3.33-2.56-.11-4.45-5.48-3l-128.14 34.32c-5.38 1.44-7.41 4.79-3.24 5.35l13.66 1.83c34.18 4.57 84.96-9.03 112.28-30.08z" fill="#decee5"/><path d="m285.46 221.57 12-11.39c3.66-3.48-.51-6.55-6.66-4.9l-146.53 39.27c-6.15 1.65-8.23 6.39-3.32 7.57l16.1 3.86c40.28 9.67 98.36-5.9 128.41-34.41z" fill="#decee5"/><path d="m438.08 227.31v123.9a72.67 72.67 0 0 1 -72.66 72.67h-17.51a72.67 72.67 0 0 1 -72.66-72.67v-123.9a13.94 13.94 0 0 1 22.1-11.3l.5.35 9.94 7.19a14 14 0 0 0 16.33 0l.49-.35 23.88-17.26a14 14 0 0 1 16.35 0l.48.35 23.89 17.26a14 14 0 0 0 16.33 0l.49-.36 9.97-7.19a13.93 13.93 0 0 1 22.1 11.3z" fill="#f39e22"/><path d="m438.08 227.31v123.9a72.67 72.67 0 0 1 -72.66 72.67h-.2a72.68 72.68 0 0 1 -72.67-72.67v-123.9a13.74 13.74 0 0 1 5.3-10.95l9.94 7.19a14 14 0 0 0 16.33 0l.49-.35.48.35a14 14 0 0 0 16.33 0l23.9-17.26 23.89 17.26a14 14 0 0 0 16.33 0l.49-.36.49.36a14 14 0 0 0 16.33 0l9.94-7.19a13.76 13.76 0 0 1 5.29 10.95z" fill="#f9c744"/><ellipse cx="427.34" cy="260.87" fill="#fad98f" rx="7.59" ry="26.37"/><ellipse cx="427.34" cy="310.1" fill="#fad98f" rx="5.13" ry="17.81"/><path d="m411.67 259v83.7a49.1 49.1 0 0 1 -49.1 49.1h-11.81a49.1 49.1 0 0 1 -49.1-49.1v-83.7a9.43 9.43 0 0 1 14.94-7.64l7 5.1a9.43 9.43 0 0 0 11 0l16.47-11.9a9.43 9.43 0 0 1 11 0l16.47 11.9a9.43 9.43 0 0 0 11 0l7-5.1a9.42 9.42 0 0 1 15.13 7.64z" fill="#e52e44"/><ellipse cx="398.14" cy="287.23" fill="#fa4654" rx="7.59" ry="26.37"/><ellipse cx="398.14" cy="336.47" fill="#fa4654" rx="5.13" ry="17.81"/><path d="m470.84 155.6h-10.57a13.31 13.31 0 0 1 -13.27-13.31v-10.57a5.78 5.78 0 0 0 -5.78-5.78 5.78 5.78 0 0 0 -5.78 5.78v10.57a13.31 13.31 0 0 1 -13.32 13.31h-10.61a5.78 5.78 0 0 0 -5.78 5.78 5.78 5.78 0 0 0 5.78 5.78h10.57a13.31 13.31 0 0 1 13.32 13.31v10.53a5.77 5.77 0 0 0 5.78 5.78 5.78 5.78 0 0 0 5.82-5.78v-10.53a13.31 13.31 0 0 1 13.31-13.31h10.57a5.78 5.78 0 0 0 5.78-5.78 5.78 5.78 0 0 0 -5.82-5.78z" fill="#fff"/><g fill="#83d5ef"><path d="m154.3 102.55h-10.57a13.31 13.31 0 0 1 -13.31-13.31v-10.57a5.78 5.78 0 0 0 -5.78-5.78 5.78 5.78 0 0 0 -5.78 5.78v10.57a13.31 13.31 0 0 1 -13.32 13.31h-10.54a5.78 5.78 0 0 0 -5.78 5.78 5.78 5.78 0 0 0 5.78 5.78h10.57a13.32 13.32 0 0 1 13.32 13.32v10.57a5.78 5.78 0 0 0 5.78 5.78 5.78 5.78 0 0 0 5.78-5.78v-10.57a13.31 13.31 0 0 1 13.31-13.32h10.54a5.78 5.78 0 0 0 5.78-5.78 5.78 5.78 0 0 0 -5.78-5.78z"/><path d="m258 422.83h-8.13a10.23 10.23 0 0 1 -10.23-10.23v-8.13a4.44 4.44 0 0 0 -4.44-4.44 4.44 4.44 0 0 0 -4.45 4.44v8.13a10.23 10.23 0 0 1 -10.23 10.23h-8.12a4.45 4.45 0 0 0 -4.45 4.45 4.44 4.44 0 0 0 4.45 4.44h8.12a10.23 10.23 0 0 1 10.22 10.28v8.13a4.44 4.44 0 0 0 4.45 4.44 4.44 4.44 0 0 0 4.44-4.44v-8.13a10.23 10.23 0 0 1 10.23-10.23h8.14a4.44 4.44 0 0 0 4.44-4.44 4.44 4.44 0 0 0 -4.44-4.5z"/></g></svg>