<svg id="Icons" height="512" viewBox="0 0 512 512" width="512" xmlns="http://www.w3.org/2000/svg"><circle cx="256" cy="256" fill="#0989d8" r="256"/><circle cx="256" cy="256" fill="#29a3fb" r="208.88"/><path d="m173.77 433.88-90.46-102.74a47.4 47.4 0 0 1 -13.93-33.64c0-.53 0-1.09 0-1.62a47.29 47.29 0 0 1 13.9-32l41.58-41.58a44.6 44.6 0 0 1 31.5-13.06v.05h81.2a20.59 20.59 0 0 1 20.61 20.61v10.93a20.59 20.59 0 0 1 -20.61 20.61h-29l103.16 86.89a13.65 13.65 0 0 1 0 19.27l-5.11 5.11a13.63 13.63 0 0 1 -19.26 0l-91.45-75.21 90 89.95a13.66 13.66 0 0 1 0 19.27l-5.11 5.11a13.27 13.27 0 0 1 -5.67 3.37 13.57 13.57 0 0 1 -13.6-3.37l-83.35-83.35 70.65 82.84a13.66 13.66 0 0 1 0 19.27l-5.15 5.14a11.84 11.84 0 0 1 -1 .9 13.64 13.64 0 0 1 -18.23-.93l-70.65-82.85 9.48 12.09 34.9 44.57a13.63 13.63 0 0 1 0 19.26l-5.17 5.11a13.63 13.63 0 0 1 -19.23 0z" fill="#995444"/><g fill="#a55e53"><ellipse cx="298.32" cy="347.55" rx="6.17" ry="18.16" transform="matrix(.652 -.758 .758 .652 -159.7 347.32)"/><ellipse cx="272.44" cy="325.31" rx="4.54" ry="13.36" transform="matrix(.652 -.758 .758 .652 -151.85 319.95)"/><ellipse cx="233.18" cy="220.32" rx="6.17" ry="18.16" transform="matrix(.053 -.999 .999 .053 .87 441.57)"/><ellipse cx="199.1" cy="218.53" rx="4.54" ry="13.36" transform="matrix(.053 -.999 .999 .053 -29.61 405.84)"/><ellipse cx="272.98" cy="388.4" rx="6.17" ry="18.16" transform="matrix(.73 -.684 .684 .73 -191.79 291.64)"/><ellipse cx="249.65" cy="363.5" rx="4.54" ry="13.36" transform="matrix(.73 -.684 .684 .73 -181.07 268.96)"/><ellipse cx="235.65" cy="410.76" rx="6.17" ry="18.16" transform="matrix(.763 -.647 .647 .763 -209.74 249.87)"/><ellipse cx="213.58" cy="384.74" rx="4.54" ry="13.36" transform="matrix(.763 -.647 .647 .763 -198.14 229.42)"/><ellipse cx="186.89" cy="409.28" rx="6.17" ry="18.16" transform="matrix(.794 -.608 .608 .794 -210.21 197.73)"/><ellipse cx="166.17" cy="382.18" rx="4.54" ry="13.36" transform="matrix(.79 -.61 .61 .79 -198.01 179.57)"/></g><path d="m206.11 297.5 1 1 85.36 69.08a13.6 13.6 0 0 0 19.25 0l-5.11 5.11a13.6 13.6 0 0 1 -19.25 0l-91.5-75.22s7.43-2.8 10.25.03z" fill="#774742"/><path d="m237.63 261.46h-29l-11-11h40.15a20.53 20.53 0 0 0 20.53-20.53v10.93a20.62 20.62 0 0 1 -20.68 20.6z" fill="#774742"/><path d="m83.31 264a47.21 47.21 0 0 0 -13.83 31v.39.53a47.37 47.37 0 0 0 13.87 35.25l90.43 102.83a13.62 13.62 0 0 0 19.22 0l5.1-5.11a13.6 13.6 0 0 1 -19.25 0l-84.28-96.63-.27-.26c-10.38-10-14.37-29.19-9.19-43.14a28.73 28.73 0 0 0 -1-23.26z" fill="#774742"/><path d="m188.35 328.47 1 1 77.21 77.21a13.62 13.62 0 0 0 19.26 0l-5.11 5.11a13.62 13.62 0 0 1 -19.26 0l-83.36-83.36s7.44-2.78 10.26.04z" fill="#774742"/><path d="m148 345.42s6.54-2 9.36.85l1 1 71.12 83.31a13.61 13.61 0 0 0 19.26 0l-5.11 5.1a11.84 11.84 0 0 1 -1 .9 13.64 13.64 0 0 1 -18.23-.93l-70.65-82.85z" fill="#774742"/><path d="m318.1 299.11a32.25 32.25 0 0 1 -9.19 1.31 32.84 32.84 0 0 1 -31.54-42l28-74.34a3.83 3.83 0 0 1 7.16 0l28 74.34a32.85 32.85 0 0 1 -22.43 40.69z" fill="#4fcae8"/><path d="m318.1 299.11a32.88 32.88 0 0 1 -24.28-36.32l16.89-77.6a3.75 3.75 0 0 1 1.24-2.1 3.79 3.79 0 0 1 .54 1l28 74.34a32.85 32.85 0 0 1 -22.39 40.68z" fill="#83d5ef"/><ellipse cx="317.47" cy="238.65" fill="#cde6f6" rx="8.15" ry="14.61" transform="matrix(.991 -.132 .132 .991 -28.65 43.87)"/><ellipse cx="321.63" cy="269.98" fill="#cde6f6" rx="5.3" ry="9.21" transform="matrix(.991 -.132 .132 .991 -32.74 44.69)"/><path d="m349.91 152.13v14a9.06 9.06 0 0 1 -9.06 9h-63.85a9 9 0 0 1 -9.06-9v-14a9 9 0 0 1 9.06-9h63.87a9.06 9.06 0 0 1 9.04 9z" fill="#f4e6f4"/><path d="m349.91 152.13v4.13a9.06 9.06 0 0 1 -9.06 9.06h-63.85a9.05 9.05 0 0 1 -9.06-9.06v-4.13a9 9 0 0 1 9.06-9h63.87a9.06 9.06 0 0 1 9.04 9z" fill="#fff"/><path d="m432.6 100.62a24 24 0 0 1 -24 24h-66.51a9.2 9.2 0 0 0 -9.2 9.2v9.28h-48v-25a41.47 41.47 0 0 1 41.51-41.45h82.23a24 24 0 0 1 24 24z" fill="#decee5"/><path d="m418.87 86.89a24 24 0 0 1 -24 24h-66.51a9.2 9.2 0 0 0 -9.2 9.2v23h-34.23v-25a41.47 41.47 0 0 1 41.47-41.44h82.23a23.76 23.76 0 0 1 8.63 1.61 23.76 23.76 0 0 1 1.61 8.63z" fill="#f4e6f4"/><ellipse cx="383.22" cy="87.21" fill="#fff" rx="26.67" ry="7.64"/><ellipse cx="332.86" cy="87.21" fill="#fff" rx="17.97" ry="5.14"/></svg>